<svg id="svg" version="1.1" xmlns="http://www.w3.org/2000/svg" xmlns:xlink="http://www.w3.org/1999/xlink" width="400" height="400" viewBox="0, 0, 400,400"><g id="svgg"><path id="path0" d="M197.700 50.591 C 194.073 51.378,190.726 53.927,188.104 57.900 C 187.026 59.532,61.957 279.680,60.571 282.385 C 55.721 291.848,58.977 299.755,68.709 302.145 C 70.774 302.653,136.644 302.792,140.100 302.297 C 150.609 300.791,160.089 295.223,166.371 286.867 C 168.440 284.115,244.068 153.097,245.230 150.250 C 249.169 140.608,249.334 129.839,245.693 120.089 C 244.639 117.267,244.919 117.778,232.789 96.481 C 226.727 85.837,219.472 72.989,216.667 67.929 C 210.992 57.693,210.547 56.978,208.546 54.870 C 205.362 51.519,201.127 49.848,197.700 50.591 M281.504 196.404 C 277.873 197.047,274.245 199.675,271.706 203.500 C 270.168 205.818,226.458 281.231,225.675 282.920 C 221.175 292.615,225.153 300.661,235.256 302.299 C 238.005 302.745,327.363 302.751,330.100 302.305 C 339.782 300.729,343.829 293.705,340.365 284.489 C 339.722 282.780,297.417 208.117,294.645 203.800 C 291.289 198.573,286.015 195.604,281.504 196.404 " stroke="none" fill="#fbfbfb" fill-rule="evenodd"></path><path id="path1" d="M190.100 0.125 C 133.111 3.533,82.289 28.809,46.583 71.500 C 19.510 103.870,3.900 142.506,0.361 185.900 C 0.006 190.249,0.005 209.500,0.360 214.000 C 8.615 318.851,93.205 398.717,197.300 399.943 C 328.948 401.492,426.049 278.645,394.008 151.077 C 373.063 67.684,302.253 7.978,215.400 0.477 C 211.928 0.177,193.511 -0.079,190.100 0.125 M202.529 50.816 C 207.590 52.352,209.289 54.409,217.051 68.400 C 220.072 73.845,227.340 86.715,233.202 97.000 C 246.101 119.631,246.391 120.219,247.574 126.200 C 249.667 136.780,248.053 146.060,242.408 155.896 C 218.833 196.980,167.641 285.352,166.638 286.700 C 160.047 295.555,149.865 301.348,138.700 302.596 C 136.202 302.875,73.939 302.872,71.216 302.592 C 60.257 301.467,55.531 293.583,59.859 283.647 C 60.621 281.898,186.462 60.188,188.114 57.684 C 191.929 51.902,197.446 49.274,202.529 50.816 M286.756 196.847 C 289.570 197.992,292.315 200.247,294.244 203.000 C 295.542 204.852,339.340 281.788,340.138 283.618 C 344.513 293.651,339.674 301.549,328.500 302.611 C 324.169 303.023,236.198 302.756,234.411 302.326 C 224.422 299.920,221.006 291.858,225.891 282.217 C 226.727 280.568,270.531 205.077,271.530 203.563 C 275.512 197.533,281.716 194.797,286.756 196.847 " stroke="none" fill="#ec4444" fill-rule="evenodd"></path><path id="path2" d="M190.687 54.450 L 190.100 55.100 190.750 54.513 C 191.108 54.190,191.400 53.897,191.400 53.863 C 191.400 53.708,191.235 53.844,190.687 54.450 M88.650 302.750 C 97.642 302.779,112.357 302.779,121.350 302.750 C 130.342 302.721,122.985 302.698,105.000 302.698 C 87.015 302.698,79.657 302.721,88.650 302.750 M260.266 302.750 C 272.677 302.778,292.927 302.778,305.266 302.750 C 317.605 302.722,307.450 302.698,282.700 302.698 C 257.950 302.698,247.855 302.722,260.266 302.750 " stroke="none" fill="#f28787" fill-rule="evenodd"></path><path id="path3" d="" stroke="none" fill="#f4a4a4" fill-rule="evenodd"></path><path id="path4" d="" stroke="none" fill="#f49a9c" fill-rule="evenodd"></path></g></svg>