<svg id="svg" version="1.1" xmlns="http://www.w3.org/2000/svg" xmlns:xlink="http://www.w3.org/1999/xlink" width="400" height="400" viewBox="0, 0, 400,400"><g id="svgg"><path id="path0" d="M156.716 152.179 C 135.796 153.512,118.917 168.563,113.085 191.083 C 105.348 220.952,117.101 243.439,141.833 246.089 C 170.404 249.150,192.925 228.428,196.089 196.167 C 198.843 168.089,183.096 150.497,156.716 152.179 M221.102 152.284 C 221.052 152.449,220.900 153.221,220.764 154.000 C 220.629 154.779,220.445 155.792,220.355 156.250 C 220.265 156.708,220.030 157.983,219.832 159.083 C 219.396 161.505,218.912 164.146,218.594 165.833 C 218.368 167.030,218.184 168.039,217.239 173.250 C 216.766 175.854,216.061 179.703,214.917 185.917 C 213.686 192.609,212.051 201.553,211.581 204.167 C 211.342 205.496,211.000 207.371,210.820 208.333 C 210.294 211.151,209.495 215.490,209.086 217.750 C 208.936 218.575,208.674 220.000,208.502 220.917 C 208.331 221.833,208.033 223.483,207.840 224.583 C 207.646 225.683,207.384 227.108,207.256 227.750 C 207.129 228.392,206.864 229.817,206.669 230.917 C 206.473 232.017,206.062 234.267,205.755 235.917 C 205.447 237.567,205.034 239.817,204.837 240.917 C 204.406 243.316,204.013 245.445,203.905 245.958 L 203.827 246.333 213.809 246.333 L 223.791 246.333 224.078 244.792 C 224.236 243.944,224.469 242.688,224.596 242.000 C 224.723 241.313,224.973 239.963,225.151 239.000 C 225.329 238.037,225.668 236.200,225.904 234.917 C 226.638 230.925,227.664 225.384,228.263 222.167 C 228.579 220.471,228.954 218.446,229.098 217.667 C 229.241 216.887,229.487 215.575,229.645 214.750 L 229.932 213.250 242.091 213.154 C 256.798 213.037,258.956 212.824,265.417 210.855 C 277.102 207.293,285.928 198.642,288.477 188.250 C 293.267 168.721,280.792 153.181,259.583 152.258 C 252.907 151.968,221.193 151.989,221.102 152.284 M162.466 167.761 C 172.688 169.279,176.986 177.590,175.580 193.116 C 173.310 218.166,163.961 230.939,147.917 230.911 C 134.054 230.887,128.935 220.478,132.181 198.917 C 135.053 179.837,143.533 169.175,157.083 167.608 C 158.404 167.455,160.880 167.526,162.466 167.761 M253.417 167.827 C 261.798 168.006,263.227 168.399,266.172 171.333 C 268.670 173.822,269.421 175.853,269.405 180.083 C 269.374 188.812,264.398 194.767,255.250 197.023 C 252.989 197.581,232.833 197.725,232.833 197.183 C 232.833 196.873,232.996 195.944,233.828 191.500 C 234.009 190.537,234.271 189.112,234.412 188.333 C 234.714 186.667,235.701 181.328,236.169 178.833 C 236.350 177.871,236.762 175.621,237.086 173.833 C 237.815 169.803,238.180 167.954,238.278 167.792 C 238.372 167.635,245.153 167.651,253.417 167.827 " stroke="none" fill="#fcfbfb" fill-rule="evenodd"></path><path id="path1" d="M189.500 0.093 C 189.271 0.122,187.508 0.265,185.583 0.409 C 180.607 0.783,177.095 1.131,174.500 1.508 C 173.262 1.688,172.064 1.835,171.836 1.834 C 171.608 1.834,170.558 1.987,169.503 2.175 C 168.447 2.363,166.871 2.630,166.000 2.768 C 165.129 2.906,163.742 3.166,162.917 3.345 C 162.092 3.525,161.234 3.671,161.011 3.669 C 160.788 3.668,160.188 3.772,159.678 3.900 C 159.167 4.029,158.000 4.295,157.083 4.492 C 153.715 5.215,152.580 5.487,149.417 6.332 C 148.775 6.504,147.762 6.770,147.167 6.925 C 146.571 7.080,145.596 7.349,145.000 7.523 C 144.404 7.698,143.504 7.960,143.000 8.105 C 142.496 8.251,141.671 8.504,141.167 8.668 C 140.662 8.831,139.350 9.243,138.250 9.583 C 137.150 9.923,135.875 10.339,135.417 10.508 C 134.958 10.677,134.021 11.013,133.333 11.256 C 131.486 11.907,129.208 12.747,128.167 13.161 C 127.662 13.361,127.053 13.586,126.812 13.662 C 126.571 13.737,126.121 13.909,125.812 14.045 C 125.233 14.298,123.340 15.088,122.750 15.322 C 122.567 15.395,122.071 15.615,121.648 15.811 C 121.226 16.006,120.830 16.167,120.769 16.167 C 120.707 16.167,120.078 16.432,119.370 16.757 C 118.662 17.081,117.858 17.447,117.583 17.570 C 115.925 18.310,110.662 20.799,110.250 21.038 C 110.067 21.144,109.167 21.618,108.250 22.091 C 107.333 22.564,106.077 23.224,105.457 23.557 C 104.838 23.890,103.863 24.413,103.290 24.721 C 102.718 25.028,101.987 25.439,101.667 25.635 C 101.346 25.830,100.858 26.107,100.583 26.250 C 100.308 26.392,99.933 26.602,99.750 26.715 C 99.375 26.946,97.908 27.828,97.472 28.083 C 97.316 28.175,96.755 28.512,96.226 28.833 C 95.697 29.154,95.073 29.532,94.840 29.672 C 93.938 30.217,92.877 30.894,91.953 31.517 C 91.423 31.874,90.961 32.167,90.926 32.167 C 90.892 32.167,89.975 32.772,88.890 33.511 C 87.805 34.250,86.673 35.008,86.375 35.194 C 86.077 35.380,85.833 35.601,85.833 35.683 C 85.833 35.766,85.758 35.833,85.666 35.833 C 85.416 35.833,79.255 40.248,78.108 41.250 C 78.003 41.342,77.467 41.748,76.917 42.152 C 76.367 42.556,75.793 43.006,75.641 43.152 C 75.490 43.298,75.119 43.604,74.816 43.833 C 74.514 44.063,73.955 44.512,73.575 44.833 C 73.194 45.154,72.159 46.014,71.275 46.745 C 70.390 47.476,69.667 48.132,69.667 48.203 C 69.667 48.275,69.581 48.333,69.477 48.333 C 69.372 48.333,69.203 48.433,69.102 48.556 C 69.000 48.678,68.035 49.548,66.958 50.489 C 65.881 51.430,65.000 52.268,65.000 52.350 C 65.000 52.433,64.918 52.500,64.818 52.500 C 64.602 52.500,63.561 53.498,58.530 58.530 C 53.498 63.561,52.500 64.602,52.500 64.818 C 52.500 64.918,52.433 65.000,52.350 65.000 C 52.268 65.000,51.430 65.881,50.489 66.958 C 49.548 68.035,48.678 69.000,48.556 69.102 C 48.433 69.203,48.333 69.372,48.333 69.477 C 48.333 69.581,48.275 69.667,48.203 69.667 C 48.132 69.667,47.476 70.390,46.745 71.275 C 46.014 72.159,45.154 73.194,44.833 73.575 C 44.512 73.955,44.063 74.514,43.833 74.816 C 43.604 75.119,43.298 75.490,43.152 75.641 C 43.006 75.793,42.556 76.367,42.152 76.917 C 41.748 77.467,41.342 78.003,41.250 78.108 C 40.955 78.446,40.374 79.215,39.256 80.750 C 38.655 81.575,38.014 82.425,37.831 82.639 C 37.649 82.853,37.500 83.059,37.500 83.097 C 37.500 83.135,37.125 83.691,36.667 84.333 C 36.208 84.976,35.833 85.576,35.833 85.667 C 35.833 85.759,35.766 85.833,35.683 85.833 C 35.601 85.833,35.377 86.077,35.186 86.375 C 34.677 87.170,33.886 88.362,33.666 88.667 C 33.482 88.923,32.596 90.267,32.249 90.817 C 32.157 90.964,31.716 91.646,31.270 92.333 C 30.167 94.033,29.966 94.349,29.671 94.840 C 29.531 95.073,29.154 95.697,28.833 96.226 C 28.017 97.573,27.990 97.618,27.248 98.883 C 26.882 99.505,26.418 100.293,26.215 100.633 C 26.013 100.972,25.731 101.475,25.589 101.750 C 25.448 102.025,25.059 102.737,24.726 103.333 C 23.245 105.981,19.424 113.508,18.339 115.917 C 18.050 116.558,17.709 117.308,17.580 117.583 C 16.739 119.384,16.167 120.673,16.167 120.769 C 16.167 120.830,16.025 121.188,15.852 121.565 C 15.386 122.578,14.054 125.825,13.417 127.500 C 13.260 127.912,12.992 128.587,12.822 129.000 C 12.492 129.799,11.900 131.460,11.216 133.500 C 10.986 134.188,10.662 135.087,10.496 135.500 C 10.331 135.912,9.918 137.150,9.580 138.250 C 9.242 139.350,8.831 140.662,8.668 141.167 C 8.504 141.671,8.251 142.496,8.105 143.000 C 7.960 143.504,7.698 144.404,7.523 145.000 C 7.349 145.596,7.080 146.571,6.925 147.167 C 6.770 147.762,6.503 148.775,6.331 149.417 C 5.433 152.771,4.529 156.682,3.923 159.833 C 3.773 160.612,3.509 161.962,3.336 162.833 C 3.163 163.704,2.908 165.129,2.769 166.000 C 2.630 166.871,2.363 168.447,2.175 169.503 C 1.987 170.558,1.834 171.608,1.834 171.836 C 1.835 172.064,1.688 173.262,1.508 174.500 C 1.163 176.876,0.861 179.836,0.378 185.583 C 0.135 188.470,0.083 190.998,0.083 200.000 C 0.083 209.002,0.135 211.530,0.378 214.417 C 0.861 220.164,1.163 223.124,1.508 225.500 C 1.688 226.737,1.835 227.936,1.834 228.164 C 1.834 228.392,1.986 229.442,2.173 230.497 C 2.360 231.553,2.625 233.129,2.763 234.000 C 2.901 234.871,3.162 236.258,3.343 237.083 C 3.524 237.908,3.671 238.759,3.669 238.973 C 3.668 239.187,3.776 239.824,3.911 240.389 C 4.045 240.954,4.311 242.129,4.502 243.000 C 5.313 246.688,5.511 247.509,6.332 250.583 C 6.504 251.225,6.770 252.237,6.925 252.833 C 7.080 253.429,7.349 254.404,7.523 255.000 C 7.698 255.596,7.960 256.496,8.105 257.000 C 8.251 257.504,8.504 258.329,8.667 258.833 C 8.830 259.337,9.092 260.200,9.250 260.750 C 9.408 261.300,9.671 262.125,9.835 262.583 C 9.999 263.042,10.173 263.567,10.221 263.750 C 10.372 264.330,12.427 269.977,13.162 271.833 C 13.362 272.337,13.586 272.947,13.662 273.188 C 13.737 273.429,13.908 273.879,14.041 274.188 C 14.175 274.497,14.453 275.162,14.659 275.667 C 15.276 277.175,15.436 277.547,15.810 278.352 C 16.006 278.774,16.167 279.170,16.167 279.231 C 16.167 279.293,16.432 279.922,16.757 280.630 C 17.081 281.338,17.442 282.142,17.560 282.417 C 17.677 282.692,17.933 283.254,18.128 283.667 C 18.323 284.079,19.014 285.542,19.664 286.917 C 20.314 288.292,20.932 289.567,21.038 289.750 C 21.144 289.933,21.618 290.833,22.091 291.750 C 22.564 292.667,23.224 293.923,23.557 294.543 C 23.890 295.162,24.413 296.137,24.721 296.710 C 25.028 297.282,25.439 298.012,25.635 298.333 C 25.830 298.654,26.104 299.142,26.244 299.417 C 26.384 299.692,26.687 300.217,26.918 300.583 C 27.150 300.950,27.414 301.400,27.505 301.583 C 27.597 301.767,27.802 302.116,27.961 302.359 C 28.120 302.602,28.550 303.306,28.917 303.922 C 29.283 304.539,29.714 305.240,29.873 305.480 C 30.032 305.720,30.220 306.029,30.290 306.167 C 30.586 306.750,34.459 312.573,35.500 314.000 C 35.868 314.504,36.219 315.029,36.280 315.167 C 36.342 315.304,36.439 315.454,36.496 315.500 C 36.554 315.546,36.859 315.957,37.175 316.413 C 37.903 317.463,37.869 317.416,38.681 318.473 C 39.057 318.962,39.644 319.762,39.986 320.250 C 40.327 320.738,40.810 321.387,41.057 321.694 C 41.305 322.000,41.830 322.674,42.225 323.192 C 42.620 323.710,43.050 324.251,43.180 324.394 C 43.310 324.538,43.492 324.752,43.583 324.871 C 43.999 325.409,45.093 326.768,45.247 326.937 C 45.340 327.040,46.014 327.846,46.745 328.729 C 47.476 329.611,48.132 330.333,48.203 330.333 C 48.275 330.333,48.333 330.429,48.333 330.546 C 48.333 330.663,48.465 330.876,48.625 331.018 C 48.785 331.161,49.140 331.534,49.414 331.847 C 50.860 333.503,52.812 335.678,53.486 336.383 C 54.911 337.875,62.845 345.833,62.908 345.833 C 62.942 345.833,63.333 346.196,63.777 346.640 C 64.220 347.084,65.596 348.334,66.833 349.419 C 68.071 350.504,69.121 351.436,69.167 351.491 C 69.288 351.638,74.167 355.676,74.816 356.167 C 75.119 356.396,75.490 356.702,75.641 356.848 C 75.793 356.994,76.367 357.444,76.917 357.848 C 77.467 358.252,78.003 358.658,78.108 358.750 C 78.446 359.045,79.215 359.626,80.750 360.744 C 81.575 361.345,82.410 361.968,82.605 362.127 C 82.800 362.286,83.071 362.492,83.207 362.583 C 83.809 362.988,85.326 364.047,86.167 364.650 C 86.671 365.011,87.421 365.512,87.833 365.763 C 88.246 366.015,88.643 366.321,88.717 366.443 C 88.790 366.566,88.931 366.667,89.030 366.667 C 89.129 366.667,89.576 366.929,90.022 367.250 C 90.469 367.571,90.869 367.833,90.911 367.833 C 90.953 367.833,91.577 368.227,92.297 368.708 C 94.119 369.925,94.218 369.988,94.500 370.113 C 94.638 370.174,95.162 370.498,95.667 370.833 C 96.171 371.168,96.696 371.494,96.833 371.556 C 96.971 371.618,97.383 371.856,97.750 372.086 C 98.117 372.315,98.754 372.694,99.167 372.929 C 99.579 373.163,100.217 373.535,100.583 373.754 C 100.950 373.974,101.475 374.268,101.750 374.408 C 102.025 374.549,102.662 374.900,103.167 375.190 C 104.872 376.169,106.736 377.137,111.000 379.259 C 114.865 381.182,116.110 381.782,117.583 382.433 C 117.858 382.554,118.741 382.956,119.545 383.327 C 120.349 383.697,121.074 384.000,121.156 384.000 C 121.239 384.000,121.519 384.103,121.778 384.228 C 122.575 384.613,123.713 385.108,124.500 385.412 C 124.912 385.572,125.587 385.836,126.000 386.000 C 126.412 386.164,127.087 386.426,127.500 386.583 C 127.912 386.740,128.587 387.004,129.000 387.170 C 129.412 387.336,130.200 387.635,130.750 387.834 C 131.300 388.033,131.935 388.270,132.161 388.361 C 132.386 388.451,133.214 388.739,134.000 389.000 C 134.786 389.261,135.614 389.549,135.839 389.639 C 136.065 389.730,137.150 390.081,138.250 390.419 C 139.350 390.758,140.662 391.168,141.167 391.330 C 142.951 391.905,144.263 392.301,145.333 392.587 C 145.929 392.746,146.904 393.012,147.500 393.178 C 148.096 393.344,149.033 393.592,149.583 393.729 C 150.133 393.866,151.183 394.129,151.917 394.313 C 157.248 395.652,165.111 397.208,170.083 397.907 C 182.355 399.635,186.548 399.917,200.000 399.917 C 212.046 399.917,217.526 399.613,225.667 398.493 C 226.996 398.310,228.946 398.042,230.000 397.897 C 231.054 397.752,232.517 397.517,233.250 397.375 C 233.983 397.232,234.958 397.064,235.417 397.001 C 237.049 396.776,240.404 396.090,245.750 394.887 C 246.392 394.743,247.479 394.479,248.167 394.301 C 248.854 394.123,249.867 393.865,250.417 393.729 C 250.967 393.592,251.904 393.344,252.500 393.178 C 253.096 393.012,254.071 392.746,254.667 392.587 C 255.727 392.303,256.998 391.920,258.833 391.331 C 259.337 391.169,260.200 390.908,260.750 390.750 C 261.300 390.592,262.125 390.329,262.583 390.165 C 263.042 390.001,263.567 389.829,263.750 389.783 C 263.933 389.737,264.946 389.387,266.000 389.005 C 267.054 388.623,268.104 388.247,268.333 388.170 C 268.773 388.022,270.301 387.440,271.833 386.836 C 272.337 386.638,272.947 386.414,273.188 386.338 C 273.429 386.263,273.879 386.088,274.188 385.949 C 274.497 385.810,275.270 385.494,275.905 385.248 C 276.540 385.001,277.178 384.743,277.322 384.674 C 277.712 384.488,278.636 384.092,279.667 383.670 C 280.171 383.464,280.715 383.229,280.875 383.148 C 281.473 382.845,281.765 382.709,282.333 382.471 C 282.654 382.337,283.254 382.068,283.667 381.875 C 285.431 381.047,289.117 379.287,289.500 379.089 C 294.470 376.525,296.919 375.214,298.333 374.361 C 298.654 374.168,299.142 373.893,299.417 373.750 C 299.692 373.608,300.067 373.397,300.250 373.281 C 300.433 373.166,300.883 372.904,301.250 372.698 C 301.617 372.492,302.142 372.177,302.417 371.997 C 302.692 371.817,303.029 371.619,303.167 371.556 C 303.304 371.494,303.832 371.170,304.339 370.836 C 304.847 370.503,305.372 370.175,305.506 370.108 C 305.927 369.899,307.003 369.214,309.833 367.353 C 310.337 367.021,310.869 366.675,311.014 366.583 C 311.262 366.427,311.795 366.061,313.986 364.542 C 314.482 364.198,315.003 363.842,315.144 363.750 C 315.464 363.541,315.606 363.438,316.356 362.873 C 316.690 362.622,317.131 362.304,317.338 362.167 C 317.544 362.029,318.059 361.649,318.481 361.321 C 318.904 360.993,319.813 360.326,320.500 359.839 C 321.188 359.352,321.862 358.849,322.000 358.720 C 322.137 358.592,322.674 358.165,323.192 357.772 C 323.710 357.378,324.247 356.950,324.386 356.820 C 324.524 356.690,324.886 356.396,325.189 356.167 C 326.178 355.419,331.356 351.081,332.065 350.407 C 332.167 350.310,333.000 349.569,333.917 348.759 C 334.833 347.950,335.909 346.960,336.308 346.560 C 336.707 346.161,337.066 345.833,337.106 345.833 C 337.202 345.833,345.833 337.202,345.833 337.106 C 345.833 337.066,346.161 336.707,346.560 336.308 C 347.184 335.687,348.189 334.573,350.586 331.852 C 350.860 331.541,351.164 331.204,351.262 331.102 C 351.569 330.783,355.729 325.769,356.167 325.189 C 356.396 324.886,356.690 324.524,356.820 324.386 C 356.950 324.247,357.378 323.710,357.772 323.192 C 358.165 322.674,358.592 322.137,358.720 322.000 C 358.848 321.862,359.239 321.337,359.589 320.833 C 359.938 320.329,360.305 319.840,360.404 319.746 C 360.503 319.652,360.658 319.457,360.750 319.313 C 361.410 318.271,362.237 317.167,362.357 317.167 C 362.436 317.167,362.500 317.084,362.500 316.982 C 362.500 316.881,362.689 316.562,362.919 316.274 C 363.351 315.734,363.465 315.580,363.750 315.144 C 363.910 314.899,364.462 314.098,365.791 312.181 C 366.135 311.684,366.492 311.160,366.583 311.016 C 366.675 310.873,367.144 310.172,367.625 309.459 C 368.106 308.746,368.500 308.125,368.500 308.079 C 368.500 308.034,368.748 307.641,369.052 307.207 C 369.356 306.772,369.659 306.304,369.725 306.167 C 369.792 306.029,369.938 305.767,370.050 305.583 C 370.323 305.136,371.365 303.477,371.626 303.074 C 371.741 302.896,371.887 302.637,371.949 302.500 C 372.012 302.362,372.299 301.875,372.587 301.417 C 372.874 300.958,373.164 300.471,373.230 300.333 C 373.295 300.196,373.530 299.783,373.751 299.417 C 373.972 299.050,374.268 298.525,374.409 298.250 C 374.549 297.975,374.964 297.225,375.329 296.583 C 375.695 295.942,376.202 295.004,376.456 294.500 C 376.709 293.996,376.958 293.546,377.008 293.500 C 377.059 293.454,378.098 291.392,379.318 288.917 C 381.481 284.528,382.003 283.441,382.440 282.417 C 382.557 282.142,382.956 281.259,383.327 280.455 C 383.697 279.651,384.000 278.926,384.000 278.844 C 384.000 278.761,384.103 278.481,384.229 278.222 C 384.667 277.322,385.137 276.246,385.419 275.500 C 385.689 274.786,386.215 273.467,386.517 272.750 C 386.594 272.567,386.764 272.117,386.895 271.750 C 387.026 271.383,387.334 270.558,387.581 269.917 C 387.828 269.275,388.094 268.563,388.172 268.333 C 388.250 268.104,388.623 267.054,389.002 266.000 C 389.380 264.946,389.750 263.858,389.824 263.583 C 389.897 263.308,390.035 262.896,390.131 262.667 C 390.227 262.438,390.466 261.688,390.664 261.000 C 390.861 260.313,391.167 259.374,391.344 258.913 C 391.522 258.453,391.667 257.974,391.667 257.847 C 391.667 257.721,391.809 257.197,391.984 256.684 C 392.158 256.170,392.430 255.262,392.588 254.667 C 392.747 254.071,393.012 253.096,393.178 252.500 C 393.344 251.904,393.592 250.967,393.729 250.417 C 393.866 249.867,394.129 248.817,394.313 248.083 C 396.959 237.546,398.498 227.785,399.622 214.417 C 399.865 211.530,399.917 209.002,399.917 200.000 C 399.917 188.706,399.888 188.004,399.076 179.417 C 398.618 174.576,397.560 167.269,396.735 163.250 C 396.603 162.608,396.497 161.937,396.498 161.758 C 396.499 161.579,396.344 160.754,396.153 159.925 C 395.961 159.095,395.657 157.742,395.476 156.917 C 394.845 154.038,394.622 153.075,394.301 151.833 C 394.123 151.146,393.865 150.133,393.729 149.583 C 393.592 149.033,393.344 148.096,393.178 147.500 C 393.012 146.904,392.746 145.929,392.587 145.333 C 392.303 144.273,391.920 143.002,391.331 141.167 C 391.169 140.662,390.905 139.800,390.744 139.250 C 390.583 138.700,390.340 137.950,390.204 137.583 C 390.068 137.217,389.899 136.692,389.829 136.417 C 389.758 136.142,389.388 135.054,389.005 134.000 C 388.623 132.946,388.247 131.896,388.170 131.667 C 388.022 131.227,387.440 129.699,386.836 128.167 C 386.638 127.662,386.414 127.053,386.338 126.812 C 386.263 126.571,386.090 126.121,385.954 125.812 C 385.818 125.503,385.540 124.837,385.336 124.333 C 384.702 122.766,384.488 122.266,384.240 121.778 C 384.108 121.519,384.000 121.239,384.000 121.156 C 384.000 121.074,383.697 120.349,383.327 119.545 C 382.956 118.741,382.554 117.858,382.433 117.583 C 381.851 116.266,379.176 110.606,378.966 110.250 C 378.858 110.067,378.334 109.065,377.800 108.024 C 376.478 105.446,375.066 102.836,374.361 101.667 C 374.168 101.346,373.893 100.858,373.750 100.583 C 373.608 100.308,373.399 99.932,373.287 99.747 C 373.175 99.561,372.859 99.036,372.585 98.580 C 372.312 98.123,371.996 97.600,371.884 97.417 C 371.772 97.233,371.626 96.971,371.561 96.833 C 371.496 96.696,371.174 96.169,370.846 95.663 C 369.933 94.252,369.840 94.102,369.716 93.833 C 369.652 93.696,369.202 92.999,368.717 92.285 C 368.231 91.571,367.833 90.952,367.833 90.909 C 367.833 90.865,367.590 90.471,367.292 90.032 C 366.994 89.593,366.675 89.119,366.583 88.978 C 366.428 88.740,365.942 88.034,364.626 86.134 C 362.827 83.538,359.380 78.829,358.750 78.108 C 358.658 78.003,358.252 77.467,357.848 76.917 C 357.444 76.367,356.994 75.793,356.848 75.641 C 356.702 75.490,356.396 75.119,356.167 74.816 C 355.676 74.167,351.638 69.288,351.491 69.167 C 351.436 69.121,350.504 68.071,349.419 66.833 C 348.334 65.596,347.084 64.220,346.640 63.777 C 346.196 63.333,345.833 62.942,345.833 62.908 C 345.833 62.845,337.875 54.911,336.383 53.486 C 335.678 52.812,333.503 50.860,331.847 49.414 C 331.534 49.140,331.161 48.785,331.018 48.625 C 330.876 48.465,330.663 48.333,330.546 48.333 C 330.429 48.333,330.333 48.275,330.333 48.203 C 330.333 48.132,329.611 47.476,328.729 46.745 C 327.846 46.014,327.040 45.340,326.937 45.247 C 326.760 45.086,325.338 43.942,324.869 43.583 C 324.749 43.492,324.523 43.298,324.367 43.152 C 324.211 43.006,323.634 42.556,323.086 42.152 C 322.537 41.748,321.899 41.253,321.669 41.052 C 321.226 40.667,319.504 39.404,318.042 38.392 C 317.560 38.059,317.167 37.722,317.167 37.643 C 317.167 37.564,317.093 37.500,317.002 37.500 C 316.862 37.500,315.587 36.630,313.417 35.054 C 313.142 34.855,312.579 34.486,312.167 34.235 C 311.754 33.984,311.379 33.728,311.333 33.667 C 311.287 33.605,310.912 33.352,310.500 33.104 C 310.087 32.857,309.563 32.514,309.333 32.344 C 308.470 31.701,305.942 30.102,305.391 29.851 C 305.194 29.761,304.988 29.616,304.934 29.528 C 304.880 29.441,304.442 29.166,303.960 28.916 C 303.478 28.667,302.965 28.359,302.820 28.231 C 302.675 28.104,302.503 28.000,302.437 28.000 C 302.371 28.000,301.927 27.752,301.450 27.448 C 300.973 27.145,300.471 26.841,300.333 26.774 C 300.196 26.706,299.783 26.470,299.417 26.249 C 299.050 26.028,298.525 25.732,298.250 25.591 C 297.975 25.450,297.225 25.037,296.583 24.673 C 295.942 24.309,295.004 23.809,294.500 23.561 C 293.996 23.314,293.546 23.063,293.500 23.005 C 293.378 22.849,283.911 18.198,282.417 17.560 C 282.142 17.442,281.338 17.081,280.630 16.757 C 279.922 16.432,279.293 16.167,279.231 16.167 C 279.170 16.167,278.774 16.009,278.352 15.815 C 277.391 15.376,276.247 14.897,273.917 13.959 C 273.458 13.774,272.933 13.560,272.750 13.483 C 272.567 13.406,272.117 13.235,271.750 13.103 C 271.383 12.971,270.333 12.585,269.417 12.244 C 268.500 11.903,267.188 11.439,266.500 11.213 C 265.813 10.986,264.929 10.658,264.537 10.484 C 264.145 10.309,263.716 10.167,263.585 10.167 C 263.453 10.167,263.098 10.060,262.797 9.930 C 262.496 9.799,261.688 9.530,261.000 9.331 C 260.313 9.132,259.337 8.835,258.833 8.670 C 258.329 8.505,257.504 8.251,257.000 8.105 C 256.496 7.960,255.596 7.698,255.000 7.523 C 254.404 7.349,253.429 7.080,252.833 6.925 C 252.237 6.770,251.225 6.503,250.583 6.331 C 247.229 5.433,243.318 4.529,240.167 3.923 C 239.387 3.773,238.037 3.508,237.167 3.333 C 236.296 3.159,234.871 2.903,234.000 2.765 C 233.129 2.626,231.553 2.360,230.497 2.173 C 229.442 1.986,228.392 1.834,228.164 1.834 C 227.936 1.835,226.737 1.688,225.500 1.508 C 223.314 1.191,221.319 0.983,214.750 0.389 C 211.883 0.129,191.109 -0.114,189.500 0.093 M167.000 152.395 C 183.077 155.058,192.939 165.009,195.843 181.500 C 197.204 189.228,196.223 201.464,193.583 209.667 C 186.376 232.063,170.980 245.089,150.212 246.360 C 130.359 247.576,116.275 237.878,111.929 220.000 C 109.475 209.903,110.716 195.671,115.011 184.667 C 115.207 184.162,115.478 183.450,115.613 183.083 C 116.419 180.886,119.085 175.873,120.888 173.167 C 122.440 170.837,127.313 164.990,128.079 164.540 C 128.194 164.472,128.805 163.943,129.436 163.365 C 135.632 157.688,144.212 153.720,152.917 152.506 C 154.200 152.327,155.438 152.146,155.667 152.104 C 156.699 151.917,165.472 152.141,167.000 152.395 M262.750 152.394 C 282.702 155.345,293.045 169.518,288.674 187.917 C 285.941 199.421,275.581 208.864,262.500 211.776 C 256.316 213.152,252.822 213.388,240.054 213.292 L 230.025 213.217 229.756 214.733 C 229.607 215.568,229.381 216.775,229.252 217.417 C 229.124 218.058,228.861 219.483,228.668 220.583 C 228.474 221.683,228.212 223.108,228.084 223.750 C 227.851 224.926,227.041 229.280,226.597 231.750 C 226.305 233.371,225.275 238.932,224.821 241.333 C 224.639 242.296,224.381 243.730,224.248 244.521 C 224.114 245.312,223.958 246.081,223.901 246.230 C 223.799 246.495,204.064 246.675,203.801 246.412 C 203.753 246.364,203.853 245.595,204.024 244.704 C 204.196 243.813,204.445 242.483,204.579 241.750 C 205.116 238.802,205.538 236.496,205.845 234.833 C 206.023 233.871,206.278 232.483,206.412 231.750 C 206.546 231.017,206.810 229.592,206.997 228.583 C 207.589 225.400,208.338 221.299,208.579 219.917 C 208.707 219.183,208.971 217.721,209.166 216.667 C 209.361 215.612,209.622 214.188,209.747 213.500 C 209.872 212.813,210.166 211.200,210.401 209.917 C 210.636 208.633,210.985 206.721,211.176 205.667 C 211.366 204.612,211.626 203.225,211.753 202.583 C 211.879 201.942,212.142 200.517,212.337 199.417 C 212.660 197.590,212.861 196.485,213.581 192.583 C 213.716 191.850,213.979 190.425,214.164 189.417 C 214.667 186.684,214.958 185.111,215.318 183.167 C 215.497 182.204,215.801 180.517,215.994 179.417 C 216.187 178.317,216.450 176.892,216.579 176.250 C 216.707 175.608,217.083 173.546,217.415 171.667 C 217.746 169.787,218.159 167.537,218.332 166.667 C 218.505 165.796,218.804 164.183,218.997 163.083 C 219.190 161.983,219.458 160.521,219.593 159.833 C 219.911 158.216,221.000 152.220,221.000 152.089 C 221.000 151.807,260.744 152.097,262.750 152.394 M156.250 167.782 C 140.978 169.768,131.492 186.073,131.444 210.417 C 131.414 225.670,138.734 232.820,152.116 230.610 C 166.072 228.305,173.683 215.352,175.685 190.500 C 176.944 174.863,169.421 166.069,156.250 167.782 M238.178 168.450 C 238.081 168.798,238.001 169.219,238.001 169.385 C 238.000 169.550,237.850 170.450,237.666 171.385 C 237.482 172.319,237.221 173.683,237.086 174.417 C 236.693 176.544,236.185 179.307,235.921 180.750 C 235.145 184.991,234.944 186.076,234.652 187.583 C 234.293 189.438,233.610 193.166,233.232 195.333 C 233.096 196.112,232.949 196.869,232.906 197.015 C 232.802 197.367,248.792 197.625,252.167 197.326 C 260.696 196.569,266.608 192.122,268.775 184.833 C 269.390 182.764,269.485 177.607,268.938 176.000 C 267.795 172.643,265.468 170.152,262.309 168.904 C 259.927 167.962,259.603 167.938,248.552 167.875 L 238.354 167.817 238.178 168.450 " stroke="none" fill="#fc041c" fill-rule="evenodd"></path><path id="path2" d="M157.625 152.118 C 157.831 152.157,158.169 152.157,158.375 152.118 C 158.581 152.078,158.412 152.045,158.000 152.045 C 157.587 152.045,157.419 152.078,157.625 152.118 M162.127 152.118 C 162.334 152.158,162.634 152.156,162.794 152.115 C 162.953 152.073,162.783 152.040,162.417 152.042 C 162.050 152.044,161.920 152.078,162.127 152.118 M240.625 152.125 C 243.673 152.150,248.660 152.150,251.708 152.125 C 254.756 152.099,252.262 152.079,246.167 152.079 C 240.071 152.079,237.577 152.099,240.625 152.125 M186.083 161.667 C 186.535 162.125,186.942 162.500,186.987 162.500 C 187.033 162.500,186.701 162.125,186.250 161.667 C 185.799 161.208,185.392 160.833,185.346 160.833 C 185.300 160.833,185.632 161.208,186.083 161.667 M157.877 167.620 C 158.131 167.658,158.506 167.657,158.711 167.617 C 158.916 167.578,158.708 167.546,158.250 167.548 C 157.792 167.549,157.624 167.581,157.877 167.620 M160.044 167.620 C 160.297 167.658,160.672 167.657,160.877 167.617 C 161.082 167.578,160.875 167.546,160.417 167.548 C 159.958 167.549,159.791 167.581,160.044 167.620 M240.958 167.791 C 242.448 167.819,244.885 167.819,246.375 167.791 C 247.865 167.764,246.646 167.741,243.667 167.741 C 240.688 167.741,239.469 167.764,240.958 167.791 M196.398 190.167 C 196.398 191.313,196.424 191.781,196.457 191.208 C 196.489 190.635,196.489 189.698,196.457 189.125 C 196.424 188.552,196.398 189.021,196.398 190.167 M233.463 197.456 C 233.855 197.491,234.455 197.490,234.796 197.454 C 235.137 197.419,234.817 197.390,234.083 197.390 C 233.350 197.391,233.071 197.420,233.463 197.456 M131.227 210.667 C 131.227 211.537,131.255 211.894,131.289 211.458 C 131.324 211.023,131.324 210.310,131.289 209.875 C 131.255 209.440,131.227 209.796,131.227 210.667 M179.829 233.125 L 178.750 234.250 179.875 233.171 C 180.920 232.170,181.076 232.000,180.954 232.000 C 180.928 232.000,180.422 232.506,179.829 233.125 M121.500 237.219 C 121.500 237.248,121.744 237.491,122.042 237.760 L 122.583 238.250 122.094 237.708 C 121.638 237.203,121.500 237.090,121.500 237.219 M146.297 246.456 C 146.782 246.490,147.532 246.490,147.964 246.456 C 148.396 246.421,148.000 246.394,147.083 246.394 C 146.167 246.395,145.813 246.423,146.297 246.456 M208.792 246.458 C 211.565 246.484,216.102 246.484,218.875 246.458 C 221.648 246.433,219.379 246.412,213.833 246.412 C 208.287 246.412,206.019 246.433,208.792 246.458 " stroke="none" fill="#fc849c" fill-rule="evenodd"></path><path id="path3" d="M156.208 152.115 C 156.369 152.157,156.631 152.157,156.792 152.115 C 156.952 152.073,156.821 152.039,156.500 152.039 C 156.179 152.039,156.048 152.073,156.208 152.115 M258.458 152.118 C 258.665 152.157,259.002 152.157,259.208 152.118 C 259.415 152.078,259.246 152.045,258.833 152.045 C 258.421 152.045,258.252 152.078,258.458 152.118 M127.333 165.250 C 126.928 165.662,126.635 166.000,126.681 166.000 C 126.726 166.000,127.095 165.662,127.500 165.250 C 127.905 164.837,128.199 164.500,128.153 164.500 C 128.107 164.500,127.738 164.837,127.333 165.250 M266.083 171.333 C 266.441 171.700,266.772 172.000,266.818 172.000 C 266.863 172.000,266.608 171.700,266.250 171.333 C 265.892 170.967,265.562 170.667,265.516 170.667 C 265.470 170.667,265.725 170.967,266.083 171.333 M169.833 170.885 C 169.833 170.914,170.077 171.158,170.375 171.427 L 170.917 171.917 170.427 171.375 C 169.971 170.870,169.833 170.757,169.833 170.885 M142.744 174.375 L 141.917 175.250 142.792 174.423 C 143.605 173.654,143.743 173.500,143.619 173.500 C 143.592 173.500,143.199 173.894,142.744 174.375 M289.545 178.500 C 289.545 178.912,289.578 179.081,289.618 178.875 C 289.657 178.669,289.657 178.331,289.618 178.125 C 289.578 177.919,289.545 178.088,289.545 178.500 M269.389 179.833 C 269.389 180.521,269.419 180.802,269.455 180.458 C 269.491 180.115,269.491 179.552,269.455 179.208 C 269.419 178.865,269.389 179.146,269.389 179.833 M289.542 181.083 C 289.544 181.450,289.578 181.580,289.618 181.373 C 289.658 181.166,289.656 180.866,289.615 180.706 C 289.573 180.547,289.540 180.717,289.542 181.083 M196.205 184.833 C 196.205 185.154,196.240 185.285,196.282 185.125 C 196.323 184.965,196.323 184.702,196.282 184.542 C 196.240 184.381,196.205 184.512,196.205 184.833 M175.709 190.083 C 175.711 190.450,175.745 190.580,175.785 190.373 C 175.824 190.166,175.823 189.866,175.781 189.706 C 175.739 189.547,175.707 189.717,175.709 190.083 M175.205 195.667 C 175.205 195.987,175.240 196.119,175.282 195.958 C 175.323 195.798,175.323 195.535,175.282 195.375 C 175.240 195.215,175.205 195.346,175.205 195.667 M239.050 197.458 C 239.949 197.488,241.374 197.488,242.217 197.457 C 243.060 197.427,242.325 197.403,240.583 197.403 C 238.842 197.403,238.152 197.428,239.050 197.458 M131.372 207.667 C 131.372 207.987,131.406 208.119,131.448 207.958 C 131.490 207.798,131.490 207.535,131.448 207.375 C 131.406 207.215,131.372 207.346,131.372 207.667 M237.720 213.292 C 239.720 213.318,242.945 213.318,244.886 213.291 C 246.828 213.265,245.192 213.243,241.250 213.243 C 237.308 213.243,235.720 213.265,237.720 213.292 M249.792 213.287 C 250.090 213.324,250.577 213.324,250.875 213.287 C 251.173 213.250,250.929 213.220,250.333 213.220 C 249.737 213.220,249.494 213.250,249.792 213.287 " stroke="none" fill="#fc5e79" fill-rule="evenodd"></path><path id="path4" d="M257.375 152.115 C 257.535 152.157,257.798 152.157,257.958 152.115 C 258.119 152.073,257.987 152.039,257.667 152.039 C 257.346 152.039,257.215 152.073,257.375 152.115 M289.545 179.833 C 289.545 180.246,289.578 180.415,289.618 180.208 C 289.657 180.002,289.657 179.665,289.618 179.458 C 289.578 179.252,289.545 179.421,289.545 179.833 M235.788 197.454 C 236.084 197.490,236.609 197.491,236.955 197.455 C 237.300 197.419,237.058 197.389,236.417 197.388 C 235.775 197.387,235.492 197.417,235.788 197.454 M248.542 213.282 C 248.702 213.323,248.965 213.323,249.125 213.282 C 249.285 213.240,249.154 213.205,248.833 213.205 C 248.512 213.205,248.381 213.240,248.542 213.282 " stroke="none" fill="#fc748c" fill-rule="evenodd"></path></g></svg>